<svg xmlns="http://www.w3.org/2000/svg" viewBox="0 0 512 512"><g fill="#1b8787"><path d="M199.6,155.1a8.6,8.6,0,0,0-6.5-.2,8.4,8.4,0,0,0-4.9,10.9h0a8.4,8.4,0,0,0,7.9,5.5,10.5,10.5,0,0,0,3-.5,8.5,8.5,0,0,0,4.7-4.4,8.4,8.4,0,0,0,.2-6.4A8.2,8.2,0,0,0,199.6,155.1Z"/><path d="M329.7,359a8.3,8.3,0,0,0-9.6-7,8.5,8.5,0,0,0-7.1,9.6h0a8.3,8.3,0,0,0,8.3,7.1h1.3A8.5,8.5,0,0,0,329.7,359Z"/><path d="M303.2,296.5a13.5,13.5,0,1,0-18.9-1.7h0a13.5,13.5,0,0,0,10.2,4.7A13,13,0,0,0,303.2,296.5Z"/><path d="M281.3,244.2a15.1,15.1,0,0,0-10.6-5.4,16,16,0,0,0-11.3,3.6,15.6,15.6,0,0,0-1.8,21.9h0a15.6,15.6,0,0,0,11.9,5.5,15.5,15.5,0,0,0,15.4-14.3A14.9,14.9,0,0,0,281.3,244.2Z"/><path d="M254.5,216.4A13.4,13.4,0,1,0,234,233.7h0a13.4,13.4,0,0,0,23.6-7.7A13.3,13.3,0,0,0,254.5,216.4Z"/><path d="M218.3,185.1a11.2,11.2,0,0,0-7.9,2.5,10.9,10.9,0,0,0-1.3,15.2h0a11,11,0,0,0,8.3,3.8,10.8,10.8,0,0,0,7-2.6,10.7,10.7,0,0,0,3.8-7.4,11.2,11.2,0,0,0-2.5-7.9A11.8,11.8,0,0,0,218.3,185.1Z"/><path d="M322.2,322.8a11.2,11.2,0,0,0-2.5-7.9,10.8,10.8,0,0,0-16.6,13.9h0a11,11,0,0,0,8.3,3.8,10.8,10.8,0,0,0,7-2.6A9.6,9.6,0,0,0,322.2,322.8Z"/><path d="M195.6,130.4a7,7,0,0,0,2.5.5,6.5,6.5,0,0,0,2.5-12.5,6.5,6.5,0,0,0-5,12Z"/><path d="M219.2,99.3a7,7,0,0,0,2.5.5,6.5,6.5,0,0,0,2.5-12.5,6.5,6.5,0,0,0-8.5,3.6A6.3,6.3,0,0,0,219.2,99.3Z"/><path d="M322.2,393.4a6.5,6.5,0,0,0-8.5,3.6,6.5,6.5,0,0,0,3.5,8.5,7,7,0,0,0,2.5.5,6.6,6.6,0,0,0,2.5-12.6Z"/><path d="M295.3,420.5a6.5,6.5,0,0,0-8.5,3.6,6.5,6.5,0,0,0,3.5,8.5,7,7,0,0,0,2.5.5,6.6,6.6,0,0,0,2.5-12.6Z"/><path d="M239,24.2a3.5,3.5,0,0,1-1,6.8c-25.6-.6-49.6,6.6-71.8,22-48.5,33.7-63.8,91.9-41.3,152.7,0,.1.1.1.1.2,20.9,48.2,30,64.1,75.4,108.7,3,2.9-.8,7.6-4.3,5.4h0C145.3,287.7,108,245.1,91,186.1,72.5,122.2,93,64.4,147.5,34.7,177.5,18.4,208.3,15.2,239,24.2Z"/><circle cx="78.2" cy="21.7" r="21.7"/><path d="M273,487.8a3.5,3.5,0,0,1,1-6.8c25.6.6,49.6-6.6,71.8-22,48.5-33.7,63.8-91.9,41.3-152.7,0-.1-.1-.1-.1-.2-20.9-48.2-30-64.1-75.4-108.7-3-2.9.8-7.6,4.3-5.4h0C366.7,224.3,404,266.9,421,325.9c18.3,63.8-2.1,121.7-56.7,151.4C334.5,493.6,303.7,496.8,273,487.8Z"/><circle cx="433.8" cy="490.3" r="21.7"/></g></svg>